<?xml version="1.0" encoding="UTF-8" standalone="no"?>
<!DOCTYPE svg PUBLIC "-//W3C//DTD SVG 1.1//EN"
"http://www.w3.org/Graphics/SVG/1.1/DTD/svg11.dtd">
<svg viewBox="0 0 909 1286" version="1.1" xmlns="http://www.w3.org/2000/svg" xmlns:xlink="http://www.w3.org/1999/xlink">
<defs>
<clipPath id="c0"><path d="M0,1283.8V0H908.8V1283.8Z"/></clipPath>
<style type="text/css"><![CDATA[
.g0{
fill: #FFFFFF;
}
.g1{
fill: #F1F1F1;
}
.g2{
fill: #2B343D;
}
.g3{
fill: none;
stroke: #EE4539;
stroke-width: 0.349;
stroke-linecap: square;
stroke-linejoin: miter;
}
.g4{
fill: #EE4539;
}
]]></style>
</defs>
<path clip-path="url(#c0)" d="M0,0H908.8V1283.8H0V0Z" class="g0"/>
<path d="M0,195.2H908.8V334.5H0V195.2Z" class="g1"/>
<path d="M45.6,219.8l-1.9,-1.6l-5.3,4.6c.2,.1,.4,.3,.7,.3H52c.3,0,.5,-.2,.7,-.3l-5.3,-4.6l-1.8,1.6Z" class="g2"/>
<path d="M52.7,212.6c-.2,-.2,-.4,-.3,-.7,-.3H39.1c-.3,0,-.5,.1,-.7,.3l7.2,6.2l7.1,-6.2Z" class="g2"/>
<path d="M38.1,213.3v8.9l5.1,-4.4l-5.1,-4.5Z" class="g2"/>
<path d="M47.9,217.8l5.2,4.4v-8.9l-5.2,4.5Z" class="g2"/>
<path d="M482.8,225.2h6.7c.4,0,.7,-.3,.7,-.7V210.8c0,-.3,-.3,-.6,-.7,-.6h-6.7c-.4,0,-.6,.3,-.6,.6v13.7c0,.4,.2,.7,.6,.7Zm3.4,-.5c-.5,0,-1,-.4,-1,-.9c0,-.6,.5,-1,1,-1c.5,0,.9,.4,.9,1c0,.5,-.4,.9,-.9,.9ZM483,211.9h6.3v10.4H483V211.9Z" class="g2"/>
<path d="M49.3,243.5c-1,-1,-2.3,-1.5,-3.7,-1.5c-1.4,0,-2.8,.5,-3.8,1.5c-1.8,1.8,-2,5.3,-.4,7.4l4.2,6.1l4.2,-6.1c1.5,-2.1,1.3,-5.6,-.5,-7.4Zm-3.7,6.4c-1.5,0,-2.7,-1.2,-2.7,-2.7c0,-1.5,1.2,-2.8,2.7,-2.8c1.6,0,2.8,1.3,2.8,2.8c0,1.5,-1.2,2.7,-2.8,2.7Z" class="g2"/>
<path d="M482.4,244.8h1.1c.2,0,.3,-.2,.3,-.3v-2.2c0,-.2,-.1,-.3,-.3,-.3h-1.1c-.2,0,-.3,.1,-.3,.3v2.2c0,.1,.1,.3,.3,.3Z" class="g2"/>
<path d="M488.8,244.8h1.1c.2,0,.3,-.2,.3,-.3v-2.2c0,-.2,-.1,-.3,-.3,-.3h-1.1c-.2,0,-.3,.1,-.3,.3v2.2c0,.1,.1,.3,.3,.3Z" class="g2"/>
<path d="M492.6,243.3h-1.9v1.1c0,.5,-.4,.9,-.8,.9h-1.1c-.4,0,-.8,-.4,-.8,-.9v-1.1h-3.7v1.1c0,.5,-.4,.9,-.8,.9h-1.1c-.4,0,-.8,-.4,-.8,-.9v-1.1h-1.8c-.5,0,-.9,.4,-.9,.9v11.9c0,.5,.4,.9,.9,.9h12.8c.5,0,.9,-.4,.9,-.9V244.2c0,-.5,-.4,-.9,-.9,-.9Zm-10.2,13h-2.6c-.1,0,-.2,-.1,-.2,-.3v-2.5h2.8v2.8Zm0,-3.5h-2.8V250h2.8v2.8Zm0,-3.2h-2.8v-2.8h2.8v2.8Zm3.5,6.7H483v-2.8h2.9v2.8Zm0,-3.5H483V250h2.9v2.8Zm0,-3.2H483v-2.8h2.9v2.8Zm3.4,6.7h-2.8v-2.8h2.8v2.8Zm0,-3.5h-2.8V250h2.8v2.8Zm0,-3.2h-2.8v-2.8h2.8v2.8Zm3.5,6.4c0,.2,-.1,.3,-.3,.3H490v-2.8h2.8V256Zm0,-3.2H490V250h2.8v2.8Zm0,-3.2H490v-2.8h2.8v2.8Z" class="g2"/>
<path d="M39.4,284c1.1,2.4,3.5,4,6.2,4c2.6,0,5,-1.6,6.1,-4c.8,-.1,1.4,-.8,1.4,-1.6V280c0,-.8,-.6,-1.4,-1.4,-1.5c-1.1,-2.4,-3.4,-4,-6,-4c-2.7,0,-5.2,1.5,-6.3,4c-.7,.1,-1.3,.7,-1.3,1.5v2.4c0,.8,.6,1.5,1.3,1.6Zm6.2,3.4c-2.4,0,-4.5,-1.3,-5.5,-3.4h11c-1.1,2.1,-3.2,3.4,-5.5,3.4Zm-2.1,-7.3h.8l.4,1.5l.5,-1.5h.7l.5,1.5l.5,-1.5h.7l-.9,2.5H46l-.4,-1.3l-.5,1.3h-.7l-.9,-2.5Zm8.2,0l-.8,2.5h-.7l-.5,-1.3l-.4,1.3h-.8l-.8,-2.5h.7l.5,1.5l.5,-1.5h.7l.4,1.5l.5,-1.5h.7Zm-6,-5c2.2,0,4.3,1.3,5.4,3.3h-11c1,-2.1,3.2,-3.4,5.6,-3.3Zm-5.6,5l.5,1.5l.5,-1.5h.6l.5,1.5l.5,-1.5h.7l-.8,2.5h-.7l-.5,-1.3l-.5,1.3h-.7l-.8,-2.5h.7Z" class="g2"/>
<path d="M479.8,277.6h2.8v8.5h-2.8v-8.5Z" class="g2"/>
<path d="M481.2,273.6c-1,0,-1.6,.6,-1.6,1.4c0,.8,.6,1.5,1.6,1.5c1,0,1.6,-.7,1.6,-1.5c0,-.8,-.6,-1.4,-1.6,-1.4Z" class="g2"/>
<path d="M489.5,277.4c-1.5,0,-2.2,.9,-2.5,1.4v.1h-.1q.1,0,.1,-.1v-1.2h-2.9c.1,.8,0,8.5,0,8.5H487v-4.7c0,-.3,0,-.5,.1,-.7c.2,-.5,.6,-1,1.4,-1c1,0,1.4,.7,1.4,1.9v4.5h2.8v-4.8c0,-2.6,-1.3,-3.9,-3.2,-3.9Z" class="g2"/>
<path d="M49.3,306.7c-1.1,-.7,-2.4,-1,-3.7,-1c-1.4,0,-2.7,.3,-3.8,1c-1.2,.7,-2.1,1.6,-2.7,2.7c-.7,1.2,-1,2.4,-1,3.8c0,1.6,.4,3.1,1.4,4.4c.9,1.3,2.2,2.2,3.7,2.7c.2,0,.3,0,.4,-.1c.1,0,.1,-.1,.1,-.2c0,-.1,0,-.2,0,-.6c0,-.3,0,-.6,0,-.8h-.2c-.2,0,-.4,0,-.6,0c-.2,0,-.4,0,-.7,0c-.2,-.1,-.4,-.2,-.6,-.3c-.2,-.2,-.4,-.4,-.4,-.6l-.1,-.3c-.1,-.1,-.2,-.3,-.3,-.5c-.2,-.1,-.3,-.3,-.5,-.3v-.1c-.1,0,-.1,-.1,-.2,-.1c0,0,0,-.1,0,-.1q-.1,-.1,0,-.1q.1,-.1,.3,-.1h.2c.1,.1,.3,.1,.5,.3c.2,.1,.3,.3,.4,.5c.2,.2,.4,.5,.6,.6c.2,.1,.4,.2,.6,.2c.2,0,.4,0,.6,0c.1,-.1,.3,-.1,.4,-.2c.1,-.4,.2,-.8,.5,-1c-.4,0,-.7,-.1,-1,-.2c-.3,-.1,-.6,-.2,-.9,-.4c-.3,-.1,-.6,-.4,-.8,-.6c-.2,-.3,-.4,-.6,-.5,-1c-.2,-.5,-.2,-1,-.2,-1.5c0,-.8,.2,-1.5,.7,-2c-.2,-.6,-.2,-1.3,.1,-2c.2,-.1,.5,0,.9,.1c.3,.2,.6,.3,.8,.4c.1,.1,.3,.2,.4,.3c.6,-.2,1.2,-.3,1.9,-.3c.6,0,1.2,.1,1.8,.3l.4,-.3c.3,-.1,.6,-.3,.9,-.4c.4,-.1,.6,-.2,.8,-.1c.3,.7,.3,1.4,.1,2c.5,.5,.8,1.2,.8,2c0,.5,-.1,1,-.2,1.5c-.2,.4,-.4,.7,-.6,1c-.2,.3,-.4,.5,-.8,.6c-.3,.2,-.6,.3,-.9,.4c-.3,.1,-.6,.2,-1,.2c.4,.3,.5,.8,.5,1.4V320c0,.1,.1,.2,.2,.2c0,.1,.2,.1,.3,.1c1.5,-.5,2.8,-1.4,3.7,-2.7c1,-1.3,1.5,-2.8,1.5,-4.4c0,-1.4,-.4,-2.6,-1,-3.8c-.7,-1.1,-1.6,-2,-2.8,-2.7Z" class="g2"/>
<path d="M38.1,556.3H44v1.5H38.1v-1.5Z" class="g2"/>
<path d="M38.1,755.4H44v1.4H38.1v-1.4Z" class="g2"/>
<path d="M38.1,922.9H44v1.5H38.1v-1.5Z" class="g2"/>
<path d="M38.1,979.2H44v1.4H38.1v-1.4Z" class="g2"/>
<path d="M38.1,1113.2H44v1.4H38.1v-1.4Z" class="g2"/>
<path d="M481.8,633.9h5.9v1.4h-5.9v-1.4Z" class="g2"/>
<path d="M684.7,640.5h46.7m9.5,0h54.4m9.5,0h43.6" class="g3"/>
<path d="M481.8,652h5.9v1.4h-5.9V652Z" class="g2"/>
<path d="M481.8,697.4h5.9v1.4h-5.9v-1.4Z" class="g2"/>
<path d="M682.9,704H787" class="g3"/>
<path d="M481.8,729.2h5.9v1.4h-5.9v-1.4Z" class="g2"/>
<path d="M481.8,775.6h5.9V777h-5.9v-1.4Z" class="g2"/>
<path d="M481.8,793.8h5.9v1.4h-5.9v-1.4Z" class="g2"/>
<path d="M573,823.9h-.3c-.1,0,-.2,.1,-.2,.1c0,0,-.1,.1,-.1,.1v2.1c0,.3,-.1,.5,-.3,.7c-.2,.2,-.4,.3,-.7,.3H566c-.3,0,-.5,-.1,-.7,-.3c-.2,-.2,-.3,-.4,-.3,-.7v-5.4c0,-.3,.1,-.5,.3,-.7c.2,-.2,.5,-.3,.7,-.3h4.6c0,0,.1,0,.1,0q.1,-.1,.1,-.2v-.4q0,-.1,-.1,-.2H566c-.5,0,-.9,.2,-1.3,.5c-.3,.4,-.5,.8,-.5,1.3v5.4c0,.5,.2,.9,.5,1.3c.4,.4,.8,.5,1.3,.5h5.4c.5,0,1,-.1,1.3,-.5c.4,-.4,.6,-.8,.6,-1.3v-2.1c0,0,-.1,-.1,-.1,-.1c0,0,-.1,-.1,-.2,-.1Z" class="g4"/>
<path d="M575.6,818.3c-.1,-.1,-.2,-.1,-.3,-.1H572c-.1,0,-.2,0,-.3,.1c-.1,.1,-.1,.2,-.1,.3c0,.1,0,.2,.1,.3l1.1,1.1l-4.1,4.2q-.1,.1,-.1,.2c0,0,0,.1,.1,.1l.7,.7c0,.1,.1,.1,.2,.1c0,0,.1,0,.1,-.1l4.2,-4.1l1.1,1.1c.1,.1,.2,.1,.3,.1c.1,0,.2,-.1,.3,-.1c.1,-.1,.2,-.2,.2,-.3v-3.3q-.1,-.2,-.2,-.3Z" class="g4"/>
<path d="M481.8,840.2h5.9v1.4h-5.9v-1.4Z" class="g2"/>
<path d="M481.8,858.4h5.9v1.4h-5.9v-1.4Z" class="g2"/>
<path d="M481.8,890.1h5.9v1.4h-5.9v-1.4Z" class="g2"/>
<path d="M579.6,896.8h49.9m0,0h6.6m0,0h43.7" class="g3"/>
<path d="M672.6,973.4h-.4c-.1,0,-.2,0,-.2,0c0,0,-.1,.1,-.1,.2v2c0,.3,-.1,.6,-.3,.8c-.2,.2,-.4,.3,-.7,.3h-5.4c-.3,0,-.5,-.1,-.7,-.3c-.2,-.2,-.3,-.5,-.3,-.8v-5.3c0,-.3,.1,-.6,.3,-.8c.2,-.2,.5,-.3,.7,-.3h4.6c0,0,.1,0,.1,0c.1,0,.1,-.1,.1,-.2v-.4c0,0,0,-.1,-.1,-.1q0,-.1,-.1,-.1h-4.6c-.5,0,-.9,.2,-1.3,.5c-.3,.4,-.5,.8,-.5,1.4v5.3c0,.5,.2,1,.5,1.3c.4,.4,.8,.6,1.3,.6h5.4c.5,0,1,-.2,1.3,-.6c.4,-.3,.6,-.8,.6,-1.3v-2c0,-.1,-.1,-.1,-.1,-.2c0,0,-.1,0,-.1,0Z" class="g4"/>
<path d="M675.1,967.7c-.1,-.1,-.2,-.1,-.3,-.1h-3.3c-.1,0,-.2,0,-.3,.1c-.1,.1,-.1,.2,-.1,.3c0,.1,0,.2,.1,.3l1.1,1.1l-4.1,4.2q-.1,.1,-.1,.2c0,0,0,.1,.1,.2l.7,.7q.1,0,.2,0c0,0,.1,0,.1,0l4.2,-4.2l1.1,1.1c.1,.1,.2,.1,.3,.1c.1,0,.2,0,.3,-.1c.1,-.1,.2,-.2,.2,-.3V968c-.1,-.1,-.1,-.2,-.2,-.3Z" class="g4"/>
<path d="M584.2,1021.5h-.4c0,0,-.1,.1,-.1,.1c-.1,0,-.1,.1,-.1,.2v2c0,.3,-.1,.6,-.3,.7c-.2,.3,-.4,.3,-.7,.3h-5.4c-.3,0,-.5,-.1,-.7,-.3c-.2,-.2,-.3,-.4,-.3,-.7v-5.4c0,-.2,.1,-.5,.3,-.7c.2,-.2,.4,-.3,.7,-.3h4.6c0,0,.1,0,.1,0c0,-.1,.1,-.1,.1,-.2v-.4c0,-.1,-.1,-.1,-.1,-.2c0,0,-.1,0,-.1,0h-4.6c-.5,0,-.9,.2,-1.3,.5c-.4,.4,-.5,.8,-.5,1.3v5.4c0,.5,.2,.9,.5,1.3c.4,.4,.8,.6,1.3,.6h5.4c.5,0,.9,-.2,1.3,-.6c.4,-.4,.5,-.8,.5,-1.3v-2c0,-.1,0,-.2,0,-.2c-.1,0,-.1,-.1,-.2,-.1Z" class="g4"/>
<path d="M586.8,1015.9c-.1,-.1,-.2,-.1,-.3,-.1h-3.3c-.1,0,-.2,0,-.3,.1c-.1,.1,-.1,.2,-.1,.3c0,.1,0,.2,.1,.3l1.1,1.1l-4.2,4.2q0,.1,0,.2c0,0,0,.1,0,.1l.8,.8h.1q.1,0,.2,0l4.2,-4.2l1.1,1.1c.1,.1,.2,.1,.3,.1c.1,0,.2,0,.3,-.1c.1,-.1,.1,-.2,.1,-.3v-3.3c0,-.1,0,-.2,-.1,-.3Z" class="g4"/>
<path d="M730.2,1053h-.4q-.1,0,-.2,0c0,0,-.1,.1,-.1,.2v2c0,.3,-.1,.6,-.3,.8c-.2,.2,-.4,.3,-.7,.3h-5.4c-.2,0,-.5,-.1,-.7,-.3c-.2,-.2,-.3,-.5,-.3,-.8v-5.3c0,-.3,.1,-.6,.3,-.8c.2,-.2,.5,-.3,.7,-.3h4.6q.1,0,.2,0c0,0,0,-.1,0,-.2v-.4c0,0,0,-.1,0,-.1q-.1,-.1,-.2,-.1h-4.5c-.5,0,-1,.2,-1.4,.5c-.3,.4,-.5,.8,-.5,1.4v5.3c0,.5,.2,1,.5,1.3c.4,.4,.8,.6,1.4,.6h5.3c.5,0,1,-.2,1.3,-.6c.4,-.3,.6,-.8,.6,-1.3v-2q0,-.1,-.1,-.2c0,0,-.1,0,-.1,0Z" class="g4"/>
<path d="M732.7,1047.3c0,-.1,-.2,-.1,-.3,-.1h-3.3c-.1,0,-.2,0,-.3,.1c-.1,.1,-.1,.2,-.1,.3c0,.1,.1,.2,.1,.3l1.2,1.1l-4.2,4.2q-.1,.1,-.1,.2q0,.1,.1,.2l.7,.7q.1,0,.2,0c0,0,.1,0,.1,0l4.2,-4.2l1.1,1.1c.1,.1,.2,.1,.3,.1c.1,0,.3,0,.3,-.1c.1,-.1,.2,-.2,.2,-.3v-3.3c-.1,-.1,-.1,-.2,-.2,-.3Z" class="g4"/>
<path d="M829.3,1084.4h-.4c0,0,-.1,0,-.1,0q-.1,.1,-.1,.2v2.1c0,.3,-.1,.5,-.3,.7c-.2,.2,-.5,.3,-.7,.3h-5.4c-.3,0,-.5,-.1,-.7,-.3c-.2,-.2,-.3,-.5,-.3,-.7v-5.4c0,-.3,.1,-.5,.3,-.7c.2,-.2,.4,-.3,.7,-.3h4.5c.1,0,.2,-.1,.2,-.1c0,0,.1,-.1,.1,-.1v-.4c0,-.1,-.1,-.2,-.1,-.2c0,0,-.1,-.1,-.2,-.1h-4.5c-.5,0,-.9,.2,-1.3,.6c-.4,.3,-.5,.8,-.5,1.3v5.4c0,.5,.1,.9,.5,1.3c.4,.3,.8,.5,1.3,.5h5.4c.5,0,.9,-.2,1.3,-.5c.4,-.4,.5,-.8,.5,-1.3v-2.1q0,-.1,0,-.2q-.1,0,-.2,0Z" class="g4"/>
<path d="M831.9,1078.7c-.1,0,-.2,-.1,-.3,-.1h-3.3c-.1,0,-.2,.1,-.3,.1c-.1,.1,-.1,.2,-.1,.3c0,.1,0,.2,.1,.3l1.1,1.1l-4.2,4.3v.1q0,.1,0,.2l.8,.7q0,.1,.1,.1c.1,0,.1,-.1,.2,-.1l4.2,-4.2l1.1,1.1c.1,.1,.2,.2,.3,.2c.1,0,.2,-.1,.3,-.2c.1,0,.1,-.2,.1,-.3V1079c0,-.1,0,-.2,-.1,-.3Z" class="g4"/>
<path d="M833.5,1115.8h-.4c0,0,-.1,0,-.2,.1v2.2c0,.3,-.1,.5,-.3,.7c-.2,.2,-.5,.3,-.7,.3h-5.4c-.3,0,-.5,-.1,-.7,-.3c-.2,-.2,-.3,-.4,-.3,-.7v-5.4c0,-.3,.1,-.5,.3,-.7c.2,-.2,.4,-.3,.7,-.3H831q.1,0,.2,-.1c0,0,.1,0,.1,-.1v-.4c0,-.1,-.1,-.1,-.1,-.2c0,0,-.1,0,-.2,0h-4.5c-.5,0,-.9,.1,-1.3,.5c-.4,.4,-.5,.8,-.5,1.3v5.4c0,.5,.1,.9,.5,1.3c.4,.4,.8,.5,1.3,.5h5.4c.5,0,.9,-.2,1.3,-.5c.4,-.4,.5,-.8,.5,-1.3V1116c0,0,0,-.1,0,-.1q-.1,-.1,-.2,-.1Z" class="g4"/>
<path d="M836.1,1110.2c-.1,-.1,-.2,-.2,-.3,-.2h-3.3c-.1,0,-.2,.1,-.3,.2c-.1,0,-.2,.1,-.2,.3c0,.1,.1,.2,.2,.2l1.1,1.2l-4.2,4.2c0,0,0,.1,0,.1q0,.1,0,.2l.7,.7q.1,.1,.2,.1q.1,0,.2,-.1l4.2,-4.2l1.1,1.2c.1,0,.2,.1,.3,.1c.1,0,.2,-.1,.3,-.1c.1,-.1,.1,-.2,.1,-.3v-3.3c0,-.2,0,-.3,-.1,-.3Z" class="g4"/>
<path d="M738.9,1147.2h-.4c-.1,0,-.1,.1,-.2,.1c0,0,0,.1,0,.1v2.1c0,.3,-.1,.5,-.3,.7c-.2,.2,-.5,.3,-.7,.3h-5.4c-.3,0,-.6,-.1,-.7,-.3c-.3,-.2,-.3,-.4,-.3,-.7v-5.4c0,-.3,.1,-.5,.3,-.7c.2,-.2,.4,-.3,.7,-.3h4.5q.1,0,.2,0q0,-.1,0,-.2v-.4q0,-.1,0,-.2c0,0,-.1,0,-.2,0h-4.5c-.5,0,-1,.2,-1.3,.5c-.4,.4,-.6,.8,-.6,1.3v5.4c0,.5,.2,.9,.6,1.3c.3,.4,.8,.6,1.3,.6h5.4c.5,0,.9,-.2,1.3,-.6c.3,-.4,.5,-.8,.5,-1.3v-2.1c0,0,0,-.1,0,-.1c-.1,0,-.2,-.1,-.2,-.1Z" class="g4"/>
<path d="M741.5,1141.6c-.1,-.1,-.2,-.1,-.3,-.1h-3.4c-.1,0,-.2,0,-.2,.1c-.1,.1,-.2,.2,-.2,.3c0,.1,.1,.2,.2,.3l1.1,1.1l-4.2,4.2q0,.1,0,.2c0,0,0,.1,0,.1l.7,.7q.1,.1,.2,.1q.1,0,.2,-.1l4.2,-4.1l1.1,1.1c.1,.1,.2,.1,.3,.1c.1,0,.2,0,.3,-.1c0,-.1,.1,-.2,.1,-.3v-3.3c0,-.2,-.1,-.2,-.1,-.3Z" class="g4"/>
<path fill-rule="evenodd" d="M630.9,1224.4h.3c4.1,0,7.4,3.3,7.4,7.4v.3c0,4.1,-3.3,7.3,-7.4,7.3h-.3c-4.1,0,-7.3,-3.2,-7.3,-7.3v-.3c0,-4.1,3.2,-7.4,7.3,-7.4Z" class="g2"/>
<path fill-rule="evenodd" d="M659.5,1224.4h.4c4,0,7.3,3.3,7.3,7.4v.3c0,4.1,-3.3,7.3,-7.3,7.3h-.4c-4,0,-7.3,-3.2,-7.3,-7.3v-.3c0,-4.1,3.3,-7.4,7.3,-7.4Z" class="g2"/>
<path fill-rule="evenodd" d="M688.2,1224.4h.3c4,0,7.3,3.3,7.3,7.4v.3c0,4.1,-3.3,7.3,-7.3,7.3h-.3c-4.1,0,-7.4,-3.2,-7.4,-7.3v-.3c0,-4.1,3.3,-7.4,7.4,-7.4Z" class="g2"/>
<path fill-rule="evenodd" d="M716.8,1225.1h.3c3.7,0,6.7,3,6.7,6.7v.3c0,3.7,-3,6.6,-6.7,6.6h-.3c-3.7,0,-6.7,-2.9,-6.7,-6.6v-.3c0,-3.7,3,-6.7,6.7,-6.7Z" class="g0"/>
<path fill-rule="evenodd" d="M716.8,1224.4h.3c4.1,0,7.4,3.3,7.4,7.4v.3c0,4.1,-3.3,7.3,-7.4,7.3h-.3c-4.1,0,-7.3,-3.2,-7.3,-7.3v-.3c0,-4.1,3.2,-7.4,7.3,-7.4Zm0,1.4h.3c3.3,0,6,2.7,6,6v.3c0,3.3,-2.7,5.9,-6,5.9h-.3c-3.3,0,-6,-2.6,-6,-5.9v-.3c0,-3.3,2.7,-6,6,-6Z" class="g2"/>
<path fill-rule="evenodd" d="M745.4,1225.1h.4c3.6,0,6.6,3,6.6,6.7v.3c0,3.7,-3,6.6,-6.6,6.6h-.4c-3.6,0,-6.6,-2.9,-6.6,-6.6v-.3c0,-3.7,3,-6.7,6.6,-6.7Z" class="g0"/>
<path fill-rule="evenodd" d="M745.4,1224.4h.4c4,0,7.3,3.3,7.3,7.4v.3c0,4.1,-3.3,7.3,-7.3,7.3h-.4c-4,0,-7.3,-3.2,-7.3,-7.3v-.3c0,-4.1,3.3,-7.4,7.3,-7.4Zm0,1.4h.4c3.2,0,5.9,2.7,5.9,6v.3c0,3.3,-2.7,5.9,-5.9,5.9h-.4c-3.3,0,-5.9,-2.6,-5.9,-5.9v-.3c0,-3.3,2.6,-6,5.9,-6Z" class="g2"/>
</svg>